<svg width="400" height="300" viewBox="0 0 400 300" fill="none" xmlns="http://www.w3.org/2000/svg">
  <!-- Background -->
  <rect width="400" height="300" fill="#f8fafc"/>
  
  <!-- Header -->
  <rect x="0" y="0" width="400" height="60" fill="#1e40af"/>
  <text x="20" y="35" font-family="Arial, sans-serif" font-size="18" font-weight="bold" fill="white">BG Parts</text>
  <text x="320" y="35" font-family="Arial, sans-serif" font-size="12" fill="white">Landing Page</text>
  
  <!-- Navigation -->
  <rect x="20" y="80" width="60" height="8" rx="4" fill="#3b82f6"/>
  <rect x="90" y="80" width="50" height="8" rx="4" fill="#e5e7eb"/>
  <rect x="150" y="80" width="55" height="8" rx="4" fill="#e5e7eb"/>
  <rect x="215" y="80" width="45" height="8" rx="4" fill="#e5e7eb"/>
  
  <!-- Hero Section -->
  <rect x="20" y="110" width="360" height="80" rx="8" fill="#ffffff" stroke="#e5e7eb"/>
  <text x="30" y="135" font-family="Arial, sans-serif" font-size="16" font-weight="bold" fill="#1f2937">Peças Automóveis Originais</text>
  <text x="30" y="155" font-family="Arial, sans-serif" font-size="12" fill="#6b7280">Importação especializada para Angola</text>
  
  <!-- Car Icon -->
  <rect x="300" y="125" width="60" height="35" rx="8" fill="#dbeafe"/>
  <path d="M315 135 L345 135 L350 145 L310 145 Z" fill="#3b82f6"/>
  <circle cx="320" cy="150" r="4" fill="#1e40af"/>
  <circle cx="340" cy="150" r="4" fill="#1e40af"/>
  
  <!-- Services Grid -->
  <rect x="20" y="210" width="110" height="60" rx="6" fill="#ffffff" stroke="#e5e7eb"/>
  <rect x="25" y="220" width="20" height="20" rx="4" fill="#10b981"/>
  <text x="50" y="235" font-family="Arial, sans-serif" font-size="10" font-weight="bold" fill="#1f2937">Importação</text>
  <text x="25" y="250" font-family="Arial, sans-serif" font-size="8" fill="#6b7280">Peças originais</text>
  <text x="25" y="260" font-family="Arial, sans-serif" font-size="8" fill="#6b7280">de qualidade</text>
  
  <rect x="145" y="210" width="110" height="60" rx="6" fill="#ffffff" stroke="#e5e7eb"/>
  <rect x="150" y="220" width="20" height="20" rx="4" fill="#f59e0b"/>
  <text x="175" y="235" font-family="Arial, sans-serif" font-size="10" font-weight="bold" fill="#1f2937">Catálogo</text>
  <text x="150" y="250" font-family="Arial, sans-serif" font-size="8" fill="#6b7280">Ampla variedade</text>
  <text x="150" y="260" font-family="Arial, sans-serif" font-size="8" fill="#6b7280">de peças</text>
  
  <rect x="270" y="210" width="110" height="60" rx="6" fill="#ffffff" stroke="#e5e7eb"/>
  <rect x="275" y="220" width="20" height="20" rx="4" fill="#ef4444"/>
  <text x="300" y="235" font-family="Arial, sans-serif" font-size="10" font-weight="bold" fill="#1f2937">Contato</text>
  <text x="275" y="250" font-family="Arial, sans-serif" font-size="8" fill="#6b7280">Atendimento</text>
  <text x="275" y="260" font-family="Arial, sans-serif" font-size="8" fill="#6b7280">especializado</text>
  
  <!-- Footer -->
  <rect x="0" y="280" width="400" height="20" fill="#374151"/>
  <text x="20" y="292" font-family="Arial, sans-serif" font-size="8" fill="#9ca3af">© 2024 BG Parts - Peças Automóveis</text>
</svg>