<svg width="800" height="600" viewBox="0 0 800 600" xmlns="http://www.w3.org/2000/svg">
  <!-- Background -->
  <rect width="800" height="600" fill="#0f172a"/>
  
  <!-- Header -->
  <rect width="800" height="70" fill="#1e293b"/>
  <text x="30" y="30" font-family="Arial, sans-serif" font-size="20" font-weight="bold" fill="#06b6d4">ConnectSolution</text>
  <text x="30" y="50" font-family="Arial, sans-serif" font-size="12" fill="#94a3b8">Soluções Web & Mobile</text>
  
  <!-- Navigation -->
  <text x="300" y="35" font-family="Arial, sans-serif" font-size="14" fill="#e2e8f0">Home</text>
  <text x="360" y="35" font-family="Arial, sans-serif" font-size="14" fill="#94a3b8">Serviços</text>
  <text x="430" y="35" font-family="Arial, sans-serif" font-size="14" fill="#94a3b8">Portfolio</text>
  <text x="500" y="35" font-family="Arial, sans-serif" font-size="14" fill="#94a3b8">Contato</text>
  
  <!-- CTA Button -->
  <rect x="650" y="20" width="120" height="30" fill="#06b6d4" rx="15"/>
  <text x="685" y="38" font-family="Arial, sans-serif" font-size="12" fill="white">Começar Projeto</text>
  
  <!-- Hero Section -->
  <rect x="0" y="70" width="800" height="200" fill="linear-gradient(135deg, #1e293b 0%, #0f172a 100%)"/>
  
  <!-- Hero Content -->
  <text x="50" y="120" font-family="Arial, sans-serif" font-size="32" font-weight="bold" fill="white">Transforme suas ideias</text>
  <text x="50" y="150" font-family="Arial, sans-serif" font-size="32" font-weight="bold" fill="#06b6d4">em soluções digitais</text>
  <text x="50" y="180" font-family="Arial, sans-serif" font-size="16" fill="#94a3b8">Desenvolvimento web e mobile de alta performance</text>
  <text x="50" y="200" font-family="Arial, sans-serif" font-size="16" fill="#94a3b8">com design responsivo e experiência excepcional</text>
  
  <!-- Hero CTA -->
  <rect x="50" y="220" width="150" height="40" fill="#06b6d4" rx="20"/>
  <text x="105" y="243" font-family="Arial, sans-serif" font-size="14" fill="white">Ver Portfolio</text>
  
  <rect x="220" y="220" width="150" height="40" fill="transparent" stroke="#06b6d4" stroke-width="2" rx="20"/>
  <text x="275" y="243" font-family="Arial, sans-serif" font-size="14" fill="#06b6d4">Falar Conosco</text>
  
  <!-- Mobile Mockup -->
  <rect x="500" y="100" width="120" height="200" fill="#334155" rx="15"/>
  <rect x="510" y="110" width="100" height="180" fill="#0f172a" rx="5"/>
  <circle cx="560" cy="125" r="3" fill="#06b6d4"/>
  <rect x="520" y="135" width="80" height="4" fill="#06b6d4" rx="2"/>
  <rect x="520" y="145" width="60" height="3" fill="#475569" rx="1"/>
  <rect x="520" y="155" width="70" height="3" fill="#475569" rx="1"/>
  
  <!-- Mobile app elements -->
  <rect x="520" y="170" width="35" height="35" fill="#06b6d4" rx="5"/>
  <rect x="565" y="170" width="35" height="35" fill="#10b981" rx="5"/>
  <rect x="520" y="215" width="35" height="35" fill="#f59e0b" rx="5"/>
  <rect x="565" y="215" width="35" height="35" fill="#ef4444" rx="5"/>
  
  <!-- Services Section -->
  <rect x="0" y="270" width="800" height="250" fill="#1e293b"/>
  
  <text x="50" y="310" font-family="Arial, sans-serif" font-size="24" font-weight="bold" fill="white">Nossos Serviços</text>
  
  <!-- Service Cards -->
  <rect x="50" y="330" width="200" height="150" fill="#334155" rx="10"/>
  <rect x="60" y="340" width="30" height="30" fill="#06b6d4" rx="5"/>
  <text x="65" y="360" font-family="Arial, sans-serif" font-size="16" fill="white">🌐</text>
  <text x="100" y="355" font-family="Arial, sans-serif" font-size="16" font-weight="bold" fill="white">Web Development</text>
  <text x="60" y="380" font-family="Arial, sans-serif" font-size="12" fill="#94a3b8">Aplicações web modernas</text>
  <text x="60" y="395" font-family="Arial, sans-serif" font-size="12" fill="#94a3b8">e responsivas com React,</text>
  <text x="60" y="410" font-family="Arial, sans-serif" font-size="12" fill="#94a3b8">Angular e Vue.js</text>
  
  <rect x="270" y="330" width="200" height="150" fill="#334155" rx="10"/>
  <rect x="280" y="340" width="30" height="30" fill="#10b981" rx="5"/>
  <text x="285" y="360" font-family="Arial, sans-serif" font-size="16" fill="white">📱</text>
  <text x="320" y="355" font-family="Arial, sans-serif" font-size="16" font-weight="bold" fill="white">Mobile Apps</text>
  <text x="280" y="380" font-family="Arial, sans-serif" font-size="12" fill="#94a3b8">Aplicativos nativos e</text>
  <text x="280" y="395" font-family="Arial, sans-serif" font-size="12" fill="#94a3b8">híbridos com React Native</text>
  <text x="280" y="410" font-family="Arial, sans-serif" font-size="12" fill="#94a3b8">e Flutter</text>
  
  <rect x="490" y="330" width="200" height="150" fill="#334155" rx="10"/>
  <rect x="500" y="340" width="30" height="30" fill="#f59e0b" rx="5"/>
  <text x="505" y="360" font-family="Arial, sans-serif" font-size="16" fill="white">⚡</text>
  <text x="540" y="355" font-family="Arial, sans-serif" font-size="16" font-weight="bold" fill="white">Performance</text>
  <text x="500" y="380" font-family="Arial, sans-serif" font-size="12" fill="#94a3b8">Otimização de velocidade</text>
  <text x="500" y="395" font-family="Arial, sans-serif" font-size="12" fill="#94a3b8">e experiência do usuário</text>
  <text x="500" y="410" font-family="Arial, sans-serif" font-size="12" fill="#94a3b8">em todas as plataformas</text>
  
  <!-- Stats Section -->
  <rect x="0" y="520" width="800" height="80" fill="#0f172a"/>
  
  <text x="100" y="545" font-family="Arial, sans-serif" font-size="20" font-weight="bold" fill="#06b6d4">50+</text>
  <text x="100" y="565" font-family="Arial, sans-serif" font-size="12" fill="#94a3b8">Projetos Entregues</text>
  
  <text x="250" y="545" font-family="Arial, sans-serif" font-size="20" font-weight="bold" fill="#10b981">98%</text>
  <text x="250" y="565" font-family="Arial, sans-serif" font-size="12" fill="#94a3b8">Satisfação Cliente</text>
  
  <text x="400" y="545" font-family="Arial, sans-serif" font-size="20" font-weight="bold" fill="#f59e0b">24/7</text>
  <text x="400" y="565" font-family="Arial, sans-serif" font-size="12" fill="#94a3b8">Suporte Técnico</text>
  
  <text x="550" y="545" font-family="Arial, sans-serif" font-size="20" font-weight="bold" fill="#ef4444">3 Anos</text>
  <text x="550" y="565" font-family="Arial, sans-serif" font-size="12" fill="#94a3b8">Experiência</text>
  
  <!-- Decorative elements -->
  <circle cx="720" cy="150" r="40" fill="#06b6d4" opacity="0.1"/>
  <circle cx="750" cy="180" r="20" fill="#10b981" opacity="0.1"/>
  <circle cx="680" cy="200" r="15" fill="#f59e0b" opacity="0.1"/>
</svg>