<svg width="400" height="300" viewBox="0 0 400 300" fill="none" xmlns="http://www.w3.org/2000/svg">
  <!-- Background -->
  <rect width="400" height="300" fill="#0f172a"/>
  
  <!-- Header -->
  <rect x="0" y="0" width="400" height="50" fill="#1e293b"/>
  <text x="20" y="20" font-family="Arial, sans-serif" font-size="12" font-weight="bold" fill="#3b82f6">ConnectSolution</text>
  <text x="20" y="35" font-family="Arial, sans-serif" font-size="8" fill="#64748b">Business Intelligence Platform</text>
  
  <!-- Navigation -->
  <rect x="280" y="15" width="100" height="20" rx="10" fill="#3b82f6"/>
  <text x="330" y="27" font-family="Arial, sans-serif" font-size="8" fill="white" text-anchor="middle">Dashboard</text>
  
  <!-- Sidebar -->
  <rect x="0" y="50" width="80" height="250" fill="#1e293b"/>
  
  <!-- Menu Items -->
  <rect x="10" y="65" width="60" height="25" rx="4" fill="#3b82f6"/>
  <text x="40" y="80" font-family="Arial, sans-serif" font-size="8" fill="white" text-anchor="middle">Analytics</text>
  
  <rect x="10" y="95" width="60" height="25" rx="4" fill="#374151"/>
  <text x="40" y="110" font-family="Arial, sans-serif" font-size="8" fill="#9ca3af" text-anchor="middle">Reports</text>
  
  <rect x="10" y="125" width="60" height="25" rx="4" fill="#374151"/>
  <text x="40" y="140" font-family="Arial, sans-serif" font-size="8" fill="#9ca3af" text-anchor="middle">Data</text>
  
  <rect x="10" y="155" width="60" height="25" rx="4" fill="#374151"/>
  <text x="40" y="170" font-family="Arial, sans-serif" font-size="8" fill="#9ca3af" text-anchor="middle">Settings</text>
  
  <!-- Main Content -->
  <rect x="80" y="50" width="320" height="250" fill="#0f172a"/>
  
  <!-- KPI Cards -->
  <rect x="95" y="65" width="70" height="50" rx="6" fill="#1e293b" stroke="#374151"/>
  <text x="100" y="78" font-family="Arial, sans-serif" font-size="7" fill="#64748b">Revenue</text>
  <text x="100" y="95" font-family="Arial, sans-serif" font-size="14" font-weight="bold" fill="#10b981">$2.4M</text>
  <text x="100" y="105" font-family="Arial, sans-serif" font-size="6" fill="#10b981">+12.5%</text>
  
  <rect x="175" y="65" width="70" height="50" rx="6" fill="#1e293b" stroke="#374151"/>
  <text x="180" y="78" font-family="Arial, sans-serif" font-size="7" fill="#64748b">Customers</text>
  <text x="180" y="95" font-family="Arial, sans-serif" font-size="14" font-weight="bold" fill="#3b82f6">15.2K</text>
  <text x="180" y="105" font-family="Arial, sans-serif" font-size="6" fill="#10b981">+8.3%</text>
  
  <rect x="255" y="65" width="70" height="50" rx="6" fill="#1e293b" stroke="#374151"/>
  <text x="260" y="78" font-family="Arial, sans-serif" font-size="7" fill="#64748b">Conversion</text>
  <text x="260" y="95" font-family="Arial, sans-serif" font-size="14" font-weight="bold" fill="#f59e0b">3.8%</text>
  <text x="260" y="105" font-family="Arial, sans-serif" font-size="6" fill="#ef4444">-2.1%</text>
  
  <rect x="335" y="65" width="55" height="50" rx="6" fill="#1e293b" stroke="#374151"/>
  <text x="340" y="78" font-family="Arial, sans-serif" font-size="7" fill="#64748b">Orders</text>
  <text x="340" y="95" font-family="Arial, sans-serif" font-size="14" font-weight="bold" fill="#8b5cf6">892</text>
  <text x="340" y="105" font-family="Arial, sans-serif" font-size="6" fill="#10b981">+15.7%</text>
  
  <!-- Main Chart -->
  <rect x="95" y="130" width="200" height="100" rx="6" fill="#1e293b" stroke="#374151"/>
  <text x="100" y="145" font-family="Arial, sans-serif" font-size="9" font-weight="bold" fill="white">Sales Performance</text>
  
  <!-- Chart Area -->
  <rect x="105" y="155" width="180" height="65" fill="#0f172a"/>
  
  <!-- Chart Lines -->
  <polyline points="110,200 125,185 140,190 155,175 170,180 185,165 200,170 215,155 230,160 245,145 260,150 275,135" 
            stroke="#10b981" stroke-width="2" fill="none"/>
  <polyline points="110,210 125,205 140,215 155,200 170,205 185,195 200,200 215,185 230,190 245,175 260,180 275,165" 
            stroke="#3b82f6" stroke-width="2" fill="none"/>
  
  <!-- Chart Grid -->
  <g stroke="#374151" stroke-width="0.5" opacity="0.5">
    <line x1="110" y1="160" x2="110" y2="215"/>
    <line x1="110" y1="215" x2="280" y2="215"/>
    <line x1="140" y1="215" x2="140" y2="210"/>
    <line x1="170" y1="215" x2="170" y2="210"/>
    <line x1="200" y1="215" x2="200" y2="210"/>
    <line x1="230" y1="215" x2="230" y2="210"/>
    <line x1="260" y1="215" x2="260" y2="210"/>
  </g>
  
  <!-- Right Panel -->
  <rect x="305" y="130" width="85" height="100" rx="6" fill="#1e293b" stroke="#374151"/>
  <text x="310" y="145" font-family="Arial, sans-serif" font-size="9" font-weight="bold" fill="white">Top Products</text>
  
  <!-- Product List -->
  <rect x="310" y="155" width="75" height="15" rx="3" fill="#374151"/>
  <text x="315" y="165" font-family="Arial, sans-serif" font-size="7" fill="white">Product A</text>
  <text x="370" y="165" font-family="Arial, sans-serif" font-size="7" fill="#10b981">$45K</text>
  
  <rect x="310" y="175" width="75" height="15" rx="3" fill="#374151"/>
  <text x="315" y="185" font-family="Arial, sans-serif" font-size="7" fill="white">Product B</text>
  <text x="370" y="185" font-family="Arial, sans-serif" font-size="7" fill="#3b82f6">$38K</text>
  
  <rect x="310" y="195" width="75" height="15" rx="3" fill="#374151"/>
  <text x="315" y="205" font-family="Arial, sans-serif" font-size="7" fill="white">Product C</text>
  <text x="370" y="205" font-family="Arial, sans-serif" font-size="7" fill="#f59e0b">$29K</text>
  
  <rect x="310" y="215" width="75" height="10" rx="2" fill="#374151"/>
  <text x="315" y="222" font-family="Arial, sans-serif" font-size="6" fill="#9ca3af">View All</text>
  
  <!-- Bottom Analytics -->
  <rect x="95" y="245" width="295" height="45" rx="6" fill="#1e293b" stroke="#374151"/>
  <text x="100" y="260" font-family="Arial, sans-serif" font-size="9" font-weight="bold" fill="white">Real-time Analytics</text>
  
  <!-- Analytics Items -->
  <circle cx="110" cy="275" r="3" fill="#10b981"/>
  <text x="120" y="278" font-family="Arial, sans-serif" font-size="7" fill="white">Active Users: 1,247</text>
  
  <circle cx="220" cy="275" r="3" fill="#3b82f6"/>
  <text x="230" y="278" font-family="Arial, sans-serif" font-size="7" fill="white">Page Views: 8.5K</text>
  
  <circle cx="330" cy="275" r="3" fill="#f59e0b"/>
  <text x="340" y="278" font-family="Arial, sans-serif" font-size="7" fill="white">Bounce Rate: 24%</text>
  
  <!-- Icons -->
  <!-- Revenue Icon -->
  <circle cx="155" cy="85" r="6" fill="#dcfce7"/>
  <text x="152" y="89" font-family="Arial, sans-serif" font-size="8" fill="#10b981">💰</text>
  
  <!-- Customers Icon -->
  <circle cx="235" cy="85" r="6" fill="#dbeafe"/>
  <text x="232" y="89" font-family="Arial, sans-serif" font-size="8" fill="#3b82f6">👥</text>
  
  <!-- Conversion Icon -->
  <circle cx="315" cy="85" r="6" fill="#fef3c7"/>
  <text x="312" y="89" font-family="Arial, sans-serif" font-size="8" fill="#f59e0b">📊</text>
  
  <!-- Orders Icon -->
  <circle cx="375" cy="85" r="6" fill="#f3e8ff"/>
  <text x="372" y="89" font-family="Arial, sans-serif" font-size="8" fill="#8b5cf6">📦</text>
  
  <!-- Connection Lines -->
  <g stroke="#374151" stroke-width="1" opacity="0.3">
    <line x1="40" y1="60" x2="40" y2="280"/>
    <line x1="40" y1="280" x2="350" y2="280"/>
    <line x1="350" y1="280" x2="350" y2="60"/>
  </g>
</svg>