<svg width="400" height="300" viewBox="0 0 400 300" fill="none" xmlns="http://www.w3.org/2000/svg">
  <!-- Background -->
  <rect width="400" height="300" fill="#0f172a"/>
  
  <!-- Header -->
  <rect x="0" y="0" width="400" height="50" fill="#1e293b"/>
  <text x="20" y="30" font-family="Arial, sans-serif" font-size="16" font-weight="bold" fill="white">CryptoDash</text>
  <text x="320" y="30" font-family="Arial, sans-serif" font-size="12" fill="#64748b">Real-time</text>
  
  <!-- Navigation -->
  <rect x="20" y="65" width="50" height="6" rx="3" fill="#f59e0b"/>
  <rect x="80" y="65" width="60" height="6" rx="3" fill="#374151"/>
  <rect x="150" y="65" width="55" height="6" rx="3" fill="#374151"/>
  <rect x="215" y="65" width="45" height="6" rx="3" fill="#374151"/>
  
  <!-- Main Dashboard Grid -->
  <!-- Price Cards -->
  <rect x="20" y="85" width="90" height="50" rx="6" fill="#1e293b" stroke="#334155"/>
  <text x="25" y="100" font-family="Arial, sans-serif" font-size="8" fill="#64748b">Bitcoin</text>
  <text x="25" y="115" font-family="Arial, sans-serif" font-size="14" font-weight="bold" fill="#10b981">$43,250</text>
  <text x="25" y="125" font-family="Arial, sans-serif" font-size="8" fill="#10b981">+2.5%</text>
  
  <rect x="120" y="85" width="90" height="50" rx="6" fill="#1e293b" stroke="#334155"/>
  <text x="125" y="100" font-family="Arial, sans-serif" font-size="8" fill="#64748b">Ethereum</text>
  <text x="125" y="115" font-family="Arial, sans-serif" font-size="14" font-weight="bold" fill="#ef4444">$2,680</text>
  <text x="125" y="125" font-family="Arial, sans-serif" font-size="8" fill="#ef4444">-1.2%</text>
  
  <rect x="220" y="85" width="90" height="50" rx="6" fill="#1e293b" stroke="#334155"/>
  <text x="225" y="100" font-family="Arial, sans-serif" font-size="8" fill="#64748b">Cardano</text>
  <text x="225" y="115" font-family="Arial, sans-serif" font-size="14" font-weight="bold" fill="#10b981">$0.52</text>
  <text x="225" y="125" font-family="Arial, sans-serif" font-size="8" fill="#10b981">+5.8%</text>
  
  <rect x="320" y="85" width="60" height="50" rx="6" fill="#1e293b" stroke="#334155"/>
  <text x="325" y="100" font-family="Arial, sans-serif" font-size="8" fill="#64748b">Portfolio</text>
  <text x="325" y="115" font-family="Arial, sans-serif" font-size="12" font-weight="bold" fill="#f59e0b">$12.5K</text>
  <text x="325" y="125" font-family="Arial, sans-serif" font-size="8" fill="#10b981">+8.2%</text>
  
  <!-- Chart Area -->
  <rect x="20" y="150" width="250" height="100" rx="6" fill="#1e293b" stroke="#334155"/>
  <text x="25" y="165" font-family="Arial, sans-serif" font-size="10" font-weight="bold" fill="white">Price Chart</text>
  
  <!-- Chart Lines -->
  <polyline points="30,220 50,200 70,210 90,180 110,190 130,170 150,160 170,175 190,155 210,165 230,145 250,150" 
            stroke="#10b981" stroke-width="2" fill="none"/>
  <polyline points="30,230 50,225 70,235 90,220 110,225 130,215 150,210 170,220 190,205 210,210 230,195 250,200" 
            stroke="#f59e0b" stroke-width="2" fill="none"/>
  
  <!-- Chart Grid -->
  <line x1="30" y1="170" x2="30" y2="240" stroke="#374151" stroke-width="1"/>
  <line x1="30" y1="240" x2="260" y2="240" stroke="#374151" stroke-width="1"/>
  
  <!-- Watchlist -->
  <rect x="280" y="150" width="100" height="100" rx="6" fill="#1e293b" stroke="#334155"/>
  <text x="285" y="165" font-family="Arial, sans-serif" font-size="10" font-weight="bold" fill="white">Watchlist</text>
  
  <!-- Watchlist Items -->
  <rect x="285" y="175" width="90" height="15" rx="3" fill="#374151"/>
  <text x="290" y="185" font-family="Arial, sans-serif" font-size="8" fill="white">BTC/USD</text>
  <text x="350" y="185" font-family="Arial, sans-serif" font-size="8" fill="#10b981">+2.5%</text>
  
  <rect x="285" y="195" width="90" height="15" rx="3" fill="#374151"/>
  <text x="290" y="205" font-family="Arial, sans-serif" font-size="8" fill="white">ETH/USD</text>
  <text x="350" y="205" font-family="Arial, sans-serif" font-size="8" fill="#ef4444">-1.2%</text>
  
  <rect x="285" y="215" width="90" height="15" rx="3" fill="#374151"/>
  <text x="290" y="225" font-family="Arial, sans-serif" font-size="8" fill="white">ADA/USD</text>
  <text x="350" y="225" font-family="Arial, sans-serif" font-size="8" fill="#10b981">+5.8%</text>
  
  <!-- Bottom Stats -->
  <rect x="20" y="265" width="360" height="25" rx="4" fill="#1e293b" stroke="#334155"/>
  <text x="25" y="278" font-family="Arial, sans-serif" font-size="8" fill="#64748b">Market Cap: $1.2T</text>
  <text x="120" y="278" font-family="Arial, sans-serif" font-size="8" fill="#64748b">24h Volume: $45B</text>
  <text x="240" y="278" font-family="Arial, sans-serif" font-size="8" fill="#64748b">Active Coins: 2,156</text>
  
  <!-- Crypto Icons -->
  <circle cx="75" cy="110" r="8" fill="#f7931a"/>
  <text x="71" y="114" font-family="Arial, sans-serif" font-size="8" font-weight="bold" fill="white">₿</text>
  
  <circle cx="175" cy="110" r="8" fill="#627eea"/>
  <text x="171" y="114" font-family="Arial, sans-serif" font-size="8" font-weight="bold" fill="white">Ξ</text>
  
  <circle cx="275" cy="110" r="8" fill="#0033ad"/>
  <text x="271" y="114" font-family="Arial, sans-serif" font-size="8" font-weight="bold" fill="white">₳</text>
</svg>