<svg width="800" height="600" viewBox="0 0 800 600" xmlns="http://www.w3.org/2000/svg">
  <!-- Background -->
  <rect width="800" height="600" fill="#fafafa"/>
  
  <!-- Header -->
  <rect width="800" height="80" fill="white" stroke="#e5e7eb" stroke-width="1"/>
  
  <!-- Logo -->
  <rect x="30" y="25" width="40" height="30" fill="#059669" rx="5"/>
  <text x="35" y="45" font-family="Arial, sans-serif" font-size="16" font-weight="bold" fill="white">FB</text>
  <text x="80" y="35" font-family="Arial, sans-serif" font-size="18" font-weight="bold" fill="#111827">FieldBright</text>
  <text x="80" y="55" font-family="Arial, sans-serif" font-size="12" fill="#6b7280">Performance & SEO Optimized</text>
  
  <!-- Navigation -->
  <text x="300" y="45" font-family="Arial, sans-serif" font-size="14" fill="#059669" font-weight="bold">Home</text>
  <text x="360" y="45" font-family="Arial, sans-serif" font-size="14" fill="#6b7280">About</text>
  <text x="420" y="45" font-family="Arial, sans-serif" font-size="14" fill="#6b7280">Services</text>
  <text x="490" y="45" font-family="Arial, sans-serif" font-size="14" fill="#6b7280">Portfolio</text>
  <text x="560" y="45" font-family="Arial, sans-serif" font-size="14" fill="#6b7280">Contact</text>
  
  <!-- Search -->
  <rect x="620" y="30" width="120" height="30" fill="#f9fafb" stroke="#d1d5db" rx="15"/>
  <text x="630" y="48" font-family="Arial, sans-serif" font-size="12" fill="#9ca3af">🔍 Search...</text>
  
  <!-- Hero Section -->
  <rect x="0" y="80" width="800" height="300" fill="linear-gradient(135deg, #ecfdf5 0%, #f0fdf4 100%)"/>
  
  <!-- Hero Content -->
  <text x="60" y="140" font-family="Arial, sans-serif" font-size="36" font-weight="bold" fill="#111827">Next.js Solutions</text>
  <text x="60" y="180" font-family="Arial, sans-serif" font-size="36" font-weight="bold" fill="#059669">Built for Speed</text>
  
  <text x="60" y="220" font-family="Arial, sans-serif" font-size="18" fill="#6b7280">Interfaces modernas com performance otimizada</text>
  <text x="60" y="245" font-family="Arial, sans-serif" font-size="18" fill="#6b7280">e SEO de primeira classe para seu negócio</text>
  
  <!-- Performance Metrics -->
  <rect x="60" y="270" width="300" height="80" fill="white" rx="10" stroke="#e5e7eb"/>
  
  <text x="80" y="290" font-family="Arial, sans-serif" font-size="12" fill="#6b7280">Performance Score</text>
  <rect x="80" y="295" width="100" height="8" fill="#e5e7eb" rx="4"/>
  <rect x="80" y="295" width="95" height="8" fill="#059669" rx="4"/>
  <text x="190" y="302" font-family="Arial, sans-serif" font-size="12" font-weight="bold" fill="#059669">95/100</text>
  
  <text x="80" y="320" font-family="Arial, sans-serif" font-size="12" fill="#6b7280">SEO Score</text>
  <rect x="80" y="325" width="100" height="8" fill="#e5e7eb" rx="4"/>
  <rect x="80" y="325" width="98" height="8" fill="#10b981" rx="4"/>
  <text x="190" y="332" font-family="Arial, sans-serif" font-size="12" font-weight="bold" fill="#10b981">98/100</text>
  
  <!-- Hero Image/Mockup -->
  <rect x="450" y="120" width="300" height="200" fill="white" rx="15" stroke="#e5e7eb" stroke-width="2"/>
  
  <!-- Browser mockup -->
  <rect x="460" y="130" width="280" height="25" fill="#f3f4f6" rx="5"/>
  <circle cx="470" cy="142" r="4" fill="#ef4444"/>
  <circle cx="485" cy="142" r="4" fill="#f59e0b"/>
  <circle cx="500" cy="142" r="4" fill="#10b981"/>
  <text x="520" y="147" font-family="Arial, sans-serif" font-size="10" fill="#6b7280">fieldbright.com</text>
  
  <!-- Page content mockup -->
  <rect x="470" y="165" width="260" height="8" fill="#059669" rx="4"/>
  <rect x="470" y="180" width="180" height="6" fill="#d1d5db" rx="3"/>
  <rect x="470" y="190" width="200" height="6" fill="#d1d5db" rx="3"/>
  <rect x="470" y="200" width="160" height="6" fill="#d1d5db" rx="3"/>
  
  <rect x="470" y="220" width="80" height="60" fill="#f3f4f6" rx="5"/>
  <rect x="560" y="220" width="80" height="60" fill="#f3f4f6" rx="5"/>
  <rect x="650" y="220" width="80" height="60" fill="#f3f4f6" rx="5"/>
  
  <!-- Features Section -->
  <rect x="0" y="380" width="800" height="180" fill="white"/>
  
  <text x="60" y="420" font-family="Arial, sans-serif" font-size="24" font-weight="bold" fill="#111827">Tecnologias & Features</text>
  
  <!-- Feature Cards -->
  <rect x="60" y="440" width="160" height="100" fill="#f8fafc" stroke="#e2e8f0" rx="8"/>
  <rect x="70" y="450" width="30" height="30" fill="#000000" rx="5"/>
  <text x="75" y="470" font-family="Arial, sans-serif" font-size="16" fill="white">▲</text>
  <text x="110" y="465" font-family="Arial, sans-serif" font-size="14" font-weight="bold" fill="#111827">Next.js</text>
  <text x="70" y="485" font-family="Arial, sans-serif" font-size="11" fill="#6b7280">Framework React</text>
  <text x="70" y="500" font-family="Arial, sans-serif" font-size="11" fill="#6b7280">com SSR e SSG</text>
  <text x="70" y="515" font-family="Arial, sans-serif" font-size="11" fill="#6b7280">para performance</text>
  
  <rect x="240" y="440" width="160" height="100" fill="#f8fafc" stroke="#e2e8f0" rx="8"/>
  <rect x="250" y="450" width="30" height="30" fill="#61dafb" rx="5"/>
  <text x="255" y="470" font-family="Arial, sans-serif" font-size="16" fill="white">⚛</text>
  <text x="290" y="465" font-family="Arial, sans-serif" font-size="14" font-weight="bold" fill="#111827">React.js</text>
  <text x="250" y="485" font-family="Arial, sans-serif" font-size="11" fill="#6b7280">Componentes</text>
  <text x="250" y="500" font-family="Arial, sans-serif" font-size="11" fill="#6b7280">reutilizáveis e</text>
  <text x="250" y="515" font-family="Arial, sans-serif" font-size="11" fill="#6b7280">estado gerenciado</text>
  
  <rect x="420" y="440" width="160" height="100" fill="#f8fafc" stroke="#e2e8f0" rx="8"/>
  <rect x="430" y="450" width="30" height="30" fill="#3178c6" rx="5"/>
  <text x="435" y="470" font-family="Arial, sans-serif" font-size="14" fill="white">TS</text>
  <text x="470" y="465" font-family="Arial, sans-serif" font-size="14" font-weight="bold" fill="#111827">TypeScript</text>
  <text x="430" y="485" font-family="Arial, sans-serif" font-size="11" fill="#6b7280">Tipagem estática</text>
  <text x="430" y="500" font-family="Arial, sans-serif" font-size="11" fill="#6b7280">para código mais</text>
  <text x="430" y="515" font-family="Arial, sans-serif" font-size="11" fill="#6b7280">seguro e escalável</text>
  
  <rect x="600" y="440" width="160" height="100" fill="#f8fafc" stroke="#e2e8f0" rx="8"/>
  <rect x="610" y="450" width="30" height="30" fill="#db7093" rx="5"/>
  <text x="615" y="470" font-family="Arial, sans-serif" font-size="12" fill="white">💅</text>
  <text x="650" y="465" font-family="Arial, sans-serif" font-size="14" font-weight="bold" fill="#111827">Styled Comp.</text>
  <text x="610" y="485" font-family="Arial, sans-serif" font-size="11" fill="#6b7280">CSS-in-JS para</text>
  <text x="610" y="500" font-family="Arial, sans-serif" font-size="11" fill="#6b7280">estilização</text>
  <text x="610" y="515" font-family="Arial, sans-serif" font-size="11" fill="#6b7280">componentizada</text>
  
  <!-- Footer -->
  <rect x="0" y="560" width="800" height="40" fill="#f9fafb" stroke="#e5e7eb" stroke-width="1"/>
  <text x="60" y="580" font-family="Arial, sans-serif" font-size="12" fill="#6b7280">© 2021 FieldBright - Interface Next.js | Desenvolvido remotamente para empresa brasileira</text>
  
  <!-- Performance indicators -->
  <circle cx="720" cy="580" r="8" fill="#10b981"/>
  <text x="735" y="585" font-family="Arial, sans-serif" font-size="10" fill="#10b981">Lighthouse: 95+</text>
</svg>